<?xml version="1.0" encoding="UTF-8" standalone="no"?>
<!-- Created with Inkscape (http://www.inkscape.org/) -->

<svg
   width="176.60654mm"
   height="58.277889mm"
   viewBox="0 0 176.60654 58.277889"
   version="1.1"
   id="svg701"
   inkscape:version="1.3 (0e150ed6c4, 2023-07-21)"
   xml:space="preserve"
   sodipodi:docname="keytech.svg"
   xmlns:inkscape="http://www.inkscape.org/namespaces/inkscape"
   xmlns:sodipodi="http://sodipodi.sourceforge.net/DTD/sodipodi-0.dtd"
   xmlns:xlink="http://www.w3.org/1999/xlink"
   xmlns="http://www.w3.org/2000/svg"
   xmlns:svg="http://www.w3.org/2000/svg"><sodipodi:namedview
     id="namedview703"
     pagecolor="#ffffff"
     bordercolor="#eeeeee"
     borderopacity="1"
     inkscape:showpageshadow="0"
     inkscape:pageopacity="0"
     inkscape:pagecheckerboard="0"
     inkscape:deskcolor="#505050"
     inkscape:document-units="mm"
     showgrid="false"
     inkscape:zoom="0.70710678"
     inkscape:cx="470.22601"
     inkscape:cy="571.34228"
     inkscape:window-width="1920"
     inkscape:window-height="1112"
     inkscape:window-x="-8"
     inkscape:window-y="-8"
     inkscape:window-maximized="1"
     inkscape:current-layer="layer1" /><defs
     id="defs698"><rect
       x="258"
       y="793.36041"
       width="290"
       height="148.63959"
       id="rect551" /><linearGradient
       id="linearGradient542"
       inkscape:collect="always"><stop
         style="stop-color:#ececec;stop-opacity:1;"
         offset="0"
         id="stop542" /><stop
         style="stop-color:#ececec;stop-opacity:0;"
         offset="1"
         id="stop543" /></linearGradient><linearGradient
       id="linearGradient538"
       inkscape:collect="always"><stop
         style="stop-color:#29c5d8;stop-opacity:1;"
         offset="0"
         id="stop539" /><stop
         style="stop-color:#29c5d8;stop-opacity:0;"
         offset="1"
         id="stop540" /></linearGradient><linearGradient
       inkscape:collect="always"
       xlink:href="#linearGradient538"
       id="linearGradient540"
       x1="66.531837"
       y1="135.32288"
       x2="210.17639"
       y2="133.35001"
       gradientUnits="userSpaceOnUse"
       gradientTransform="translate(2.6192414,-20.205576)" /><linearGradient
       inkscape:collect="always"
       xlink:href="#linearGradient538"
       id="linearGradient541"
       x1="66.530342"
       y1="137.83641"
       x2="204.25833"
       y2="138.1125"
       gradientUnits="userSpaceOnUse"
       gradientTransform="translate(2.6192414,-20.205576)" /><linearGradient
       inkscape:collect="always"
       xlink:href="#linearGradient542"
       id="linearGradient543"
       x1="103.56489"
       y1="153.44682"
       x2="105.83334"
       y2="261.9375"
       gradientUnits="userSpaceOnUse"
       gradientTransform="translate(2.6192414,-20.205576)" /><filter
       style="color-interpolation-filters:sRGB"
       inkscape:label="Drop Shadow"
       id="filter546"
       x="-0.062383948"
       y="-0.075632458"
       width="1.1637579"
       height="1.2458055"><feFlood
         result="flood"
         in="SourceGraphic"
         flood-opacity="0.498039"
         flood-color="rgb(0,0,0)"
         id="feFlood545" /><feGaussianBlur
         result="blur"
         in="SourceGraphic"
         stdDeviation="2.000000"
         id="feGaussianBlur545" /><feOffset
         result="offset"
         in="blur"
         dx="3.000000"
         dy="6.000000"
         id="feOffset545" /><feComposite
         result="comp1"
         operator="in"
         in="flood"
         in2="offset"
         id="feComposite545" /><feComposite
         result="comp2"
         operator="over"
         in="SourceGraphic"
         in2="comp1"
         id="feComposite546" /></filter><filter
       style="color-interpolation-filters:sRGB"
       inkscape:label="Drop Shadow"
       id="filter548"
       x="-0.12789556"
       y="-0.1400653"
       width="1.3357259"
       height="1.3676714"><feFlood
         result="flood"
         in="SourceGraphic"
         flood-opacity="0.498039"
         flood-color="rgb(0,0,0)"
         id="feFlood546" /><feGaussianBlur
         result="blur"
         in="SourceGraphic"
         stdDeviation="2.000000"
         id="feGaussianBlur546" /><feOffset
         result="offset"
         in="blur"
         dx="3.000000"
         dy="3.000000"
         id="feOffset546" /><feComposite
         result="comp1"
         operator="in"
         in="flood"
         in2="offset"
         id="feComposite547" /><feComposite
         result="comp2"
         operator="over"
         in="SourceGraphic"
         in2="comp1"
         id="feComposite548" /></filter><filter
       style="color-interpolation-filters:sRGB"
       inkscape:label="Drop Shadow"
       id="filter551"
       x="-0.69362458"
       y="-0.098637325"
       width="2.8207645"
       height="1.258923"><feFlood
         result="flood"
         in="SourceGraphic"
         flood-opacity="0.498039"
         flood-color="rgb(0,0,0)"
         id="feFlood550" /><feGaussianBlur
         result="blur"
         in="SourceGraphic"
         stdDeviation="2.000000"
         id="feGaussianBlur550" /><feOffset
         result="offset"
         in="blur"
         dx="3.000000"
         dy="3.000000"
         id="feOffset550" /><feComposite
         result="comp1"
         operator="in"
         in="flood"
         in2="offset"
         id="feComposite550" /><feComposite
         result="comp2"
         operator="over"
         in="SourceGraphic"
         in2="comp1"
         id="feComposite551" /></filter></defs><g
     inkscape:label="Layer 1"
     inkscape:groupmode="layer"
     id="layer1"
     transform="translate(-15.98489,-154.65452)"><rect
       style="fill:#ffffff;stroke:none;stroke-width:0.143306;stroke-dasharray:0.143306, 0.143306;-inkscape-stroke:none"
       id="rect537"
       width="176.60654"
       height="58.277893"
       x="15.98489"
       y="154.65451"
       inkscape:export-filename="..\..\Users\luigi\Desktop\keytech.png"
       inkscape:export-xdpi="96"
       inkscape:export-ydpi="96" /><g
       id="g552"
       transform="matrix(0.41856465,0,0,0.41856465,11.708934,128.05512)"><g
         id="g1"><path
           style="fill:url(#linearGradient541);fill-opacity:1;filter:url(#filter548)"
           d="m 95.41657,135.34718 c -1.31636,-0.69521 -2.08194,-1.76313 -4.05021,-5.64974 -1.92233,-3.79587 -2.51243,-5.99535 -2.51243,-9.36454 0,-8.47097 5.86708,-15.94876 14.28749,-18.20988 2.27125,-0.60989 6.69652,-0.62021 8.88974,-0.0207 8.04037,2.19769 13.51877,8.71518 14.28562,16.99519 0.34099,3.68173 -0.58333,7.04121 -3.26041,11.85017 -1.83534,3.2969 -2.73261,4.32281 -4.10365,4.692 l -1.07371,0.28912 -1.17348,-0.44816 c -1.37609,-0.52553 -2.18457,-1.65561 -2.18603,-3.05558 -7.1e-4,-0.68186 0.38532,-1.57443 1.3732,-3.175 2.77443,-4.49521 3.56837,-6.80626 3.30545,-9.62176 -0.63857,-6.83828 -6.76767,-11.76297 -13.34256,-10.72066 -2.48778,0.39439 -4.3161,1.3034 -6.161,3.06314 -2.61732,2.4965 -3.9126,5.84891 -3.6182,9.36457 0.18916,2.2589 0.9,4.09021 2.83034,7.29176 l 1.5856,2.62979 6.5e-4,1.05833 c 8.2e-4,1.35792 -0.74446,2.57013 -1.92436,3.13003 -1.19357,0.56639 -1.93781,0.54323 -3.15205,-0.0981 z"
           id="path537" /><path
           style="fill:url(#linearGradient540);fill-opacity:1;filter:url(#filter546)"
           d="m 78.11809,144.38458 c -2.62706,-1.60199 -7.05615,-10.46414 -8.48183,-16.97127 l -0.49118,-2.24186 0.003,-5.02708 0.003,-5.02708 0.47885,-2.24263 c 1.66196,-7.78366 5.11386,-14.364166 10.42536,-19.874306 6.13773,-6.36727 13.47668,-10.07328 22.51334,-11.36876 2.84465,-0.4078 10.06911,-0.17467 12.74354,0.41123 11.62469,2.54669 21.0192,9.74707 26.41334,20.244386 3.04651,5.9287 4.36313,11.35806 4.36244,17.98945 l -4.3e-4,4.10104 -0.5705,2.68493 c -0.74751,3.51795 -2.19913,7.67592 -3.54263,10.14736 -1.74066,3.20204 -4.13907,6.60185 -5.0485,7.15636 -1.70613,1.04031 -4.2463,0.35121 -4.94774,-1.34223 -0.52288,-1.26233 -0.15206,-2.43386 1.57549,-4.9775 2.08917,-3.0761 3.83318,-6.7849 4.71346,-10.02366 l 0.70312,-2.58692 -0.005,-5.29167 -0.005,-5.29167 -0.72537,-2.64583 C 133.46331,94.802384 116.7223,84.811734 99.62463,89.165194 c -10.44237,2.65887 -18.70932,10.53691 -22.17002,21.127076 -3.10089,9.48906 -1.65628,19.11172 4.17064,27.7811 l 1.74515,2.59646 v 1.01812 c 0,2.51014 -3.01708,4.05933 -5.25175,2.69663 z"
           id="path536" /><path
           style="fill:url(#linearGradient543);fill-opacity:1;filter:url(#filter551)"
           d="m 107.0156,181.65253 c -1.0033,-0.30066 -1.75084,-0.99487 -2.1909,-2.03456 l -0.36036,-0.8514 v -22.76266 -22.76267 h 3.43958 3.43959 v 10.98021 10.98021 h -1.71979 -1.7198 v 2.64583 2.64584 h 1.7198 1.71979 v 3.30729 3.30729 h -1.71979 -1.7198 v 2.77812 2.77813 h 1.7403 1.74029 l -0.0867,3.55137 -0.0866,3.55138 -0.66146,0.71606 c -0.60957,0.65988 -2.08232,1.47259 -2.57119,1.41886 -0.11382,-0.0125 -0.54715,-0.12469 -0.96297,-0.2493 z"
           id="path1" /></g><text
         xml:space="preserve"
         transform="matrix(1.4698164,0,0,1.4698164,-424.28141,-1065.1827)"
         id="text551"
         style="font-size:40px;line-height:normal;font-family:Consolas;-inkscape-font-specification:Consolas;text-decoration-color:#000000;direction:rtl;white-space:pre;shape-inside:url(#rect551);display:inline;fill:#808080;fill-opacity:1;stroke:none;stroke-width:1.33333;stroke-dasharray:1.33333, 1.33333;-inkscape-stroke:none"><tspan
           x="394.05469"
           y="828.06836"
           id="tspan3">KEYTECH</tspan></text></g></g></svg>
